<svg width="233" height="233" viewBox="0 0 233 233" fill="none" xmlns="http://www.w3.org/2000/svg">
<path d="M90.1661 8.52139C96.1809 11.3959 103.346 10.2611 108.178 5.66863C112.841 1.23679 120.159 1.23679 124.822 5.66863C129.654 10.2611 136.819 11.3959 142.834 8.52139C148.638 5.74745 155.598 8.0089 158.664 13.6648C161.84 19.5257 168.304 22.819 174.912 21.9438C181.29 21.0993 187.21 25.4009 188.378 31.7272C189.588 38.2829 194.717 43.4122 201.273 44.6221C207.599 45.7897 211.901 51.7103 211.056 58.0878C210.181 64.6965 213.474 71.1598 219.335 74.3363C224.991 77.4017 227.253 84.3617 224.479 90.1661C221.604 96.1809 222.739 103.346 227.331 108.178C231.763 112.841 231.763 120.159 227.331 124.822C222.739 129.654 221.604 136.819 224.479 142.834C227.253 148.638 224.991 155.598 219.335 158.664C213.474 161.84 210.181 168.304 211.056 174.912C211.901 181.29 207.599 187.21 201.273 188.378C194.717 189.588 189.588 194.717 188.378 201.273C187.21 207.599 181.29 211.901 174.912 211.056C168.304 210.181 161.84 213.474 158.664 219.335C155.598 224.991 148.638 227.253 142.834 224.479C136.819 221.604 129.654 222.739 124.822 227.331C120.159 231.763 112.841 231.763 108.178 227.331C103.346 222.739 96.1809 221.604 90.1661 224.479C84.3617 227.253 77.4017 224.991 74.3363 219.335C71.1598 213.474 64.6965 210.181 58.0878 211.056C51.7103 211.901 45.7897 207.599 44.6221 201.273C43.4122 194.717 38.2829 189.588 31.7272 188.378C25.4009 187.21 21.0993 181.29 21.9438 174.912C22.819 168.304 19.5257 161.84 13.6648 158.664C8.0089 155.598 5.74745 148.638 8.52139 142.834C11.3959 136.819 10.2611 129.654 5.66863 124.822C1.23679 120.159 1.23679 112.841 5.66863 108.178C10.2611 103.346 11.3959 96.1809 8.52139 90.1661C5.74745 84.3617 8.0089 77.4017 13.6648 74.3363C19.5257 71.1598 22.819 64.6965 21.9438 58.0878C21.0993 51.7103 25.4009 45.7897 31.7272 44.6221C38.2829 43.4122 43.4122 38.2829 44.6221 31.7272C45.7897 25.4009 51.7103 21.0993 58.0878 21.9438C64.6964 22.819 71.1598 19.5257 74.3363 13.6648C77.4017 8.0089 84.3617 5.74745 90.1661 8.52139Z" fill="#F7E6C5" stroke="#FAAE3B" stroke-width="4"/>
</svg>
